<svg width="400" height="400" viewBox="0 0 100 100" xmlns="http://www.w3.org/2000/svg">
  <!-- Background -->
  <defs>
    <radialGradient id="skyGradient" cx="50%" cy="0%" r="100%" fx="50%" fy="0%">
      <stop offset="0%" style="stop-color:#2c3e50;" />
      <stop offset="100%" style="stop-color:#4A00E0;" /> <!-- Darker blue to purple -->
    </radialGradient>
  </defs>
  <rect width="100" height="100" fill="url(#skyGradient)" />

  <!-- Tiny background stars -->
  <circle cx="20" cy="30" r="0.5" fill="white" opacity="0.7"/>
  <circle cx="70" cy="15" r="0.7" fill="white" opacity="0.8"/>
  <circle cx="80" cy="50" r="0.4" fill="white" opacity="0.6"/>
  <circle cx="40" cy="60" r="0.6" fill="white" opacity="0.7"/>
  <circle cx="15" cy="75" r="0.5" fill="white" opacity="0.9"/>
  <circle cx="85" cy="85" r="0.8" fill="white" opacity="0.7"/>


  <!-- Crescent Moon (Optional) -->
  <path d="M 75 10 A 20 20 0 0 0 70 30 A 15 15 0 1 1 75 10 Z" fill="#F0E68C" opacity="0.8"/>

  <!-- Main Character (Simplified Bunny) -->
  <ellipse cx="50" cy="80" rx="10" ry="12" fill="#E0E0E0"/> <!-- Body -->
  <circle cx="50" cy="70" r="7" fill="#F5F5F5"/> <!-- Head -->
  <ellipse cx="45" cy="58" rx="2.5" ry="7" fill="#F5F5F5" transform="rotate(-15 45 58)"/> <!-- Ear 1 -->
  <ellipse cx="55" cy="58" rx="2.5" ry="7" fill="#F5F5F5" transform="rotate(15 55 58)"/> <!-- Ear 2 -->
  <circle cx="48" cy="70" r="1" fill="#333"/> <!-- Eye 1 -->
  <circle cx="52" cy="70" r="1" fill="#333"/> <!-- Eye 2 -->
  
  <!-- Net (Simplified) -->
  <path d="M 50 60 Q 40 50 30 60 L 35 45 L 50 50 L 65 45 L 70 60 Q 60 50 50 60 Z" fill="rgba(255, 255, 255, 0.3)" stroke="#ddd" stroke-width="0.5"/>
  <line x1="50" y1="60" x2="50" y2="50" stroke="#A0522D" stroke-width="1"/> <!-- Handle -->


  <!-- Falling Stars -->
  <polygon points="50,10 53,18 62,20 55,26 57,35 50,30 43,35 45,26 38,20 47,18" fill="#FFD700" opacity="0.9" transform="scale(1.2) translate(-8, -2)">
    <animateTransform attributeName="transform"
                      type="translate"
                      values="0 0; 0 5; 0 0"
                      dur="2s"
                      repeatCount="indefinite"/>
     <animate attributeName="opacity" values="0.7;1;0.7" dur="1.5s" repeatCount="indefinite" />
  </polygon>

  <polygon points="50,10 53,18 62,20 55,26 57,35 50,30 43,35 45,26 38,20 47,18" fill="#FFFACD" opacity="0.7" transform="scale(0.8) translate(30, 25)">
    <animateTransform attributeName="transform"
                      type="translate"
                      values="30 25; 30 30; 30 25"
                      dur="2.5s"
                      begin="0.5s"
                      repeatCount="indefinite"/>
  </polygon>

   <polygon points="50,10 53,18 62,20 55,26 57,35 50,30 43,35 45,26 38,20 47,18" fill="#FFFACD" opacity="0.7" transform="scale(0.6) translate(-50, 60)">
    <animateTransform attributeName="transform"
                      type="translate"
                      values="-50 60; -50 65; -50 60"
                      dur="2.2s"
                      begin="0.2s"
                      repeatCount="indefinite"/>
  </polygon>

</svg>